<?xml version="1.0" encoding="iso-8859-1"?>
<!-- Generator: Adobe Illustrator 19.0.0, SVG Export Plug-In . SVG Version: 6.00 Build 0)  -->
<svg version="1.1" id="Capa_1" xmlns="http://www.w3.org/2000/svg" xmlns:xlink="http://www.w3.org/1999/xlink" x="0px" y="0px"
	 viewBox="0 0 54 54" style="enable-background:new 0 0 54 54;" xml:space="preserve">
<g>
	<path d="M0,8.466v43c0,0.321,0.154,0.623,0.416,0.812C0.588,52.402,0.793,52.466,1,52.466c0.106,0,0.213-0.017,0.316-0.052
		L18,46.853V32.905c-0.249,0.052-0.511,0.084-0.751,0.148c-0.086,0.022-0.172,0.033-0.257,0.033c-0.443,0-0.847-0.296-0.966-0.744
		c-0.141-0.533,0.177-1.081,0.71-1.223c0.41-0.108,0.834-0.196,1.264-0.274v-29.1L0.684,7.518C0.275,7.654,0,8.035,0,8.466z
		 M9.116,40.07c-0.894,1.938-1.124,3.519-1.125,3.534c-0.07,0.499-0.499,0.861-0.99,0.861c-0.045,0-0.092-0.003-0.138-0.01
		c-0.546-0.075-0.928-0.578-0.854-1.125c0.01-0.075,0.264-1.873,1.291-4.099c0.231-0.502,0.825-0.72,1.327-0.489
		C9.128,38.974,9.347,39.568,9.116,40.07z M8.293,25.173c-0.391-0.391-0.391-1.023,0-1.414s1.023-0.391,1.414,0L11,25.052
		l1.293-1.293c0.391-0.391,1.023-0.391,1.414,0s0.391,1.023,0,1.414l-1.293,1.293l1.293,1.293c0.391,0.391,0.391,1.023,0,1.414
		c-0.195,0.195-0.451,0.293-0.707,0.293s-0.512-0.098-0.707-0.293L11,27.88l-1.293,1.293C9.512,29.368,9.256,29.466,9,29.466
		s-0.512-0.098-0.707-0.293c-0.391-0.391-0.391-1.023,0-1.414l1.293-1.293L8.293,25.173z M13.868,34.503
		c-1.031,0.646-1.962,1.458-2.768,2.414c-0.198,0.234-0.48,0.355-0.765,0.355c-0.228,0-0.457-0.077-0.644-0.235
		c-0.422-0.356-0.476-0.987-0.12-1.409c0.94-1.115,2.028-2.063,3.235-2.82c0.467-0.294,1.084-0.151,1.378,0.316
		C14.477,33.592,14.335,34.209,13.868,34.503z M11,9.466c2.757,0,5,2.243,5,5c0,2.415-1.721,4.434-4,4.899v2.101
		c0,0.553-0.448,1-1,1s-1-0.447-1-1v-2.101c-2.279-0.465-4-2.484-4-4.899C6,11.709,8.243,9.466,11,9.466z"/>
	<circle cx="11" cy="14.466" r="3"/>
	<path d="M29.17,31.898c-0.441-0.185-0.699-0.313-0.716-0.322c-0.065-0.033-0.134-0.06-0.205-0.078
		c-1.083-0.278-2.15-0.498-3.173-0.654c-0.545-0.086-1.056,0.291-1.14,0.837c-0.083,0.546,0.292,1.057,0.838,1.14
		c0.926,0.142,1.893,0.34,2.877,0.59c0.134,0.064,0.39,0.185,0.748,0.334c0.126,0.053,0.257,0.077,0.385,0.077
		c0.391,0,0.763-0.23,0.923-0.614C29.92,32.697,29.68,32.111,29.17,31.898z"/>
	<path d="M45.07,28.139c0.12,0.047,0.243,0.068,0.364,0.068c0.4,0,0.777-0.241,0.932-0.636c0.47-1.199,0.847-2.553,1.123-4.024
		c0.102-0.542-0.256-1.064-0.799-1.167c-0.546-0.09-1.065,0.257-1.167,0.8c-0.252,1.348-0.595,2.58-1.019,3.663
		C44.303,27.357,44.556,27.937,45.07,28.139z"/>
	<path d="M40.423,34.196c0.153,0,0.309-0.035,0.454-0.109c1.292-0.661,2.431-1.599,3.384-2.786c0.346-0.431,0.277-1.061-0.154-1.406
		c-0.43-0.343-1.06-0.276-1.406,0.154c-0.776,0.967-1.696,1.726-2.735,2.257c-0.492,0.252-0.687,0.854-0.435,1.346
		C39.709,33.996,40.06,34.196,40.423,34.196z"/>
	<path d="M46.923,20.397c0.022,0.001,0.043,0.002,0.065,0.002c0.523,0,0.963-0.406,0.997-0.937c0.062-0.961,0.093-1.978,0.093-3.02
		c0-0.347-0.003-0.699-0.01-1.058c-0.01-0.553-0.49-0.973-1.018-0.982c-0.552,0.01-0.992,0.466-0.982,1.018
		c0.006,0.347,0.01,0.688,0.01,1.022c0,1-0.03,1.973-0.089,2.893C45.954,19.886,46.372,20.362,46.923,20.397z"/>
	<path d="M20,46.959l15,6.177V9.805L20,1.864V46.959z M22,5.186l11,5.824v39.14l-11-4.53V5.186z"/>
	<path d="M37,9.805v43.331l17-7.177V0.864L37,9.805z M52,44.633l-13,5.488V11.013l13-6.837V44.633z"/>
</g>
<g>
</g>
<g>
</g>
<g>
</g>
<g>
</g>
<g>
</g>
<g>
</g>
<g>
</g>
<g>
</g>
<g>
</g>
<g>
</g>
<g>
</g>
<g>
</g>
<g>
</g>
<g>
</g>
<g>
</g>
</svg>
