<?xml version="1.0" encoding="iso-8859-1"?>
<svg xmlns="http://www.w3.org/2000/svg" xmlns:xlink="http://www.w3.org/1999/xlink" version="1.1" viewBox="0 0 24 24" enable-background="new 0 0 24 24" width="512px" height="512px">
  <g>
    <path d="M3,2H1C0.4,2,0,2.4,0,3v2c0,0.6,0.4,1,1,1h2c0.6,0,1-0.4,1-1V3C4,2.4,3.6,2,3,2z" fill="#FFFFFF"/>
    <path d="m3,10h-2c-0.6,0-1,0.4-1,1v2c0,0.6 0.4,1 1,1h2c0.6,0 1-0.4 1-1v-2c0-0.6-0.4-1-1-1z" fill="#FFFFFF"/>
    <path d="m3,18h-2c-0.6,0-1,0.4-1,1v2c0,0.6 0.4,1 1,1h2c0.6,0 1-0.4 1-1v-2c0-0.6-0.4-1-1-1z" fill="#FFFFFF"/>
    <path d="M23,2H9C8.4,2,8,2.4,8,3v2c0,0.6,0.4,1,1,1h14c0.6,0,1-0.4,1-1V3C24,2.4,23.6,2,23,2z" fill="#FFFFFF"/>
    <path d="m23,10h-14c-0.6,0-1,0.4-1,1v2c0,0.6 0.4,1 1,1h14c0.6,0 1-0.4 1-1v-2c0-0.6-0.4-1-1-1z" fill="#FFFFFF"/>
    <path d="m23,18h-14c-0.6,0-1,0.4-1,1v2c0,0.6 0.4,1 1,1h14c0.6,0 1-0.4 1-1v-2c0-0.6-0.4-1-1-1z" fill="#FFFFFF"/>
  </g>
</svg>
