<svg height="416pt" viewBox="0 -18 416.212 416" width="416pt" xmlns="http://www.w3.org/2000/svg"><path d="m234.078125 302.449219h-234.078125v36.203125c.0273438 21.804687 16.925781 39.867187 38.683594 41.347656.464844-.066406.933594-.105469 1.402344-.109375h210.5c-10.625-11.511719-16.519532-26.605469-16.507813-42.273437zm0 0"/><path d="m65.566406 26.078125-1.75 256.371094h180.261719c5.523437 0 10 4.480469 10 10v45.171875c0 21.765625 17.363281 40.328125 38.675781 42.273437h3.410156c.546876.003907 1.09375.050781 1.632813.144531 22.867187-.777343 41.003906-19.539062 41.007813-42.417968v-308.355469c-.003907-10.550781 3.492187-20.804687 9.933593-29.160156h-256.742187c-14.464844-.10937525-26.285156 11.511719-26.429688 25.972656zm42.820313 42.363281h94.710937c5.523438 0 10 4.476563 10 10 0 5.523438-4.476562 10-10 10h-94.710937c-5.523438 0-10-4.476562-10-10 0-5.523437 4.476562-10 10-10zm0 71.5h176.671875c5.523437 0 10 4.476563 10 10 0 5.523438-4.476563 10-10 10h-176.671875c-5.523438 0-10-4.476562-10-10 0-5.523437 4.476562-10 10-10zm0 71.5h176.671875c5.523437 0 10 4.476563 10 10 0 5.523438-4.476563 10-10 10h-176.671875c-5.523438 0-10-4.476562-10-10 0-5.523437 4.476562-10 10-10zm0 0"/><path d="m387.507812 1.019531c-15.71875-.105469-28.558593 12.527344-28.703124 28.246094v138.445313h57.40625v-138.445313c-.144532-15.71875-12.984376-28.355469-28.703126-28.246094zm0 0"/></svg>