<?xml version="1.0" encoding="iso-8859-1"?>
<!-- Generator: Adobe Illustrator 19.0.0, SVG Export Plug-In . SVG Version: 6.00 Build 0)  -->
<svg version="1.1" id="Capa_1" xmlns="http://www.w3.org/2000/svg" xmlns:xlink="http://www.w3.org/1999/xlink" x="0px" y="0px"
	 viewBox="0 0 55 55" style="enable-background:new 0 0 55 55;" xml:space="preserve">
<g>
	<path d="M20,6.263l15,3.529v40.016l-15-2.647V6.263 M19.001,4.001c-0.224,0-0.443,0.075-0.622,0.216C18.14,4.406,18,4.695,18,5.001
		v43c0,0.485,0.348,0.9,0.826,0.984l17,3c0.058,0.011,0.116,0.016,0.174,0.016c0.233,0,0.461-0.082,0.643-0.234
		C36.869,51.577,37,51.296,37,51.001v-42c0-0.464-0.319-0.867-0.771-0.974l-17-4C19.153,4.009,19.077,4.001,19.001,4.001
		L19.001,4.001z"/>
	<g>
		<path d="M54.584,2.189c-0.261-0.188-0.597-0.241-0.901-0.137l-18,6C35.275,8.188,35,8.57,35,9.001v42
			c0,0.33,0.163,0.639,0.436,0.825c0.168,0.115,0.366,0.175,0.564,0.175c0.123,0,0.245-0.022,0.362-0.068l18-7
			C54.747,44.783,55,44.413,55,44.001v-41C55,2.679,54.846,2.378,54.584,2.189z"/>
		<path d="M18.783,4.024l-18,4C0.326,8.127,0,8.532,0,9.001v43c0,0.304,0.138,0.59,0.375,0.78c0.179,0.144,0.4,0.22,0.625,0.22
			c0.072,0,0.145-0.008,0.217-0.023l18-4C19.674,48.875,20,48.469,20,48.001v-43c0-0.304-0.138-0.59-0.375-0.78
			C19.39,4.031,19.08,3.961,18.783,4.024z"/>
	</g>
</g>
<g>
</g>
<g>
</g>
<g>
</g>
<g>
</g>
<g>
</g>
<g>
</g>
<g>
</g>
<g>
</g>
<g>
</g>
<g>
</g>
<g>
</g>
<g>
</g>
<g>
</g>
<g>
</g>
<g>
</g>
</svg>
